<svg width="108" height="40" viewBox="0 0 108 40" fill="none" xmlns="http://www.w3.org/2000/svg">
<rect y="8.71492" width="9.44453" height="9.44796" fill="#EE0033"/>
<rect x="9.44458" y="18.1629" width="5.94656" height="5.94872" fill="#EE0033"/>
<path fill-rule="evenodd" clip-rule="evenodd" d="M71.7122 18.1629C70.4751 9.072 62.6837 2.06635 53.2567 2.06635C43.8296 2.06635 36.0382 9.072 34.8011 18.1629H37.7781V24.1116H34.9415C36.5436 32.7732 44.1343 39.3333 53.2567 39.3333C62.379 39.3333 69.9697 32.7732 71.5719 24.1116H68.7352V18.1629H71.7122ZM42.8257 20.6998C42.8257 14.9369 47.4958 10.2651 53.2567 10.2651C59.0175 10.2651 63.6876 14.9369 63.6876 20.6998C63.6876 26.4628 59.0175 31.1346 53.2567 31.1346C47.4958 31.1346 42.8257 26.4628 42.8257 20.6998Z" fill="#EE0033"/>
<path fill-rule="evenodd" clip-rule="evenodd" d="M14.4338 39.3333H9.44458V31.1929C11.1512 31.5107 13.8301 31.1814 13.8301 31.1814C17.3791 31.1814 20.1414 30.2083 22.1171 28.2621C24.0928 26.3159 25.0807 23.5619 25.0807 20C25.0807 16.4381 24.0928 13.6657 22.1171 11.6828C20.1414 9.69989 17.3791 8.70844 13.8301 8.70844H9.44458V0.666656H14.4338C18.495 0.666656 22.0439 1.4745 25.0807 3.0902C28.1175 4.70591 30.4591 6.98258 32.1055 9.92021C33.5132 12.3466 34.3322 15.0942 34.5625 18.1629H31.8316V24.1116H34.2686C33.8728 26.2642 33.1517 28.2536 32.1055 30.0798C30.4591 33.0174 28.0992 35.2941 25.0258 36.9098C21.9891 38.5255 18.4584 39.3333 14.4338 39.3333Z" fill="#EE0033"/>
<path fill-rule="evenodd" clip-rule="evenodd" d="M96.7157 3.07C100.419 4.33785 105.345 7.66515 108 14.6729H99.2001C97.934 12.8828 96.1362 11.5371 94.0622 10.8271C91.9881 10.1171 89.7431 10.0789 87.6461 10.7177C85.549 11.3566 83.7065 12.6402 82.3801 14.3862C81.0537 16.1321 80.3109 18.2518 80.2572 20.4441C80.2034 22.6363 80.8415 24.7898 82.0807 26.5987C83.32 28.4076 85.0974 29.78 87.1607 30.5209C89.2239 31.2619 91.4681 31.3337 93.5744 30.7262C95.6808 30.1188 97.2031 29.0743 98.5554 27.3484H108C105.464 34.2594 99.6061 37.5194 95.8447 38.6041C92.0833 39.6889 88.0759 39.5606 84.3916 38.2375C80.7072 36.9144 77.5332 34.4638 75.3203 31.2336C73.8444 29.0793 72.846 26.6513 72.3731 24.1116H75.0315V18.1629H72.2317C72.6664 14.9987 73.9089 11.9869 75.8548 9.42542C78.2233 6.30761 81.5136 4.01552 85.2583 2.87466C89.0031 1.7338 93.012 1.80214 96.7157 3.07Z" fill="#EE0033"/>
<rect x="2.09875" y="24.1116" width="7.34575" height="7.34842" fill="#EE0033"/>
</svg>
