<svg width="188" height="68" viewBox="0 0 188 68" fill="none" xmlns="http://www.w3.org/2000/svg">
<rect y="14.2824" width="16.4405" height="16.4464" fill="white"/>
<rect x="16.4404" y="30.7288" width="10.3514" height="10.3552" fill="white"/>
<path fill-rule="evenodd" clip-rule="evenodd" d="M124.832 30.7288C122.679 14.904 109.116 2.70894 92.7061 2.70894C76.2961 2.70894 62.7333 14.904 60.5798 30.7288H65.762V41.084H60.8241C63.613 56.1616 76.8265 67.581 92.7061 67.581C108.586 67.581 121.799 56.1616 124.588 41.084H119.65V30.7288H124.832ZM74.5485 35.145C74.5485 25.1132 82.678 16.9808 92.7061 16.9808C102.734 16.9808 110.864 25.1132 110.864 35.145C110.864 45.1768 102.734 53.3092 92.7061 53.3092C82.678 53.3092 74.5485 45.1768 74.5485 35.145Z" fill="white"/>
<path fill-rule="evenodd" clip-rule="evenodd" d="M25.1253 67.581H16.4404V53.4106C19.4112 53.9639 24.0744 53.3906 24.0744 53.3906C30.2523 53.3906 35.0608 51.6967 38.5 48.3089C41.9393 44.9211 43.6589 40.1271 43.6589 33.9267C43.6589 27.7264 41.9393 22.9004 38.5 19.4487C35.0608 15.9969 30.2523 14.2711 24.0744 14.2711H16.4404V0.27243H25.1253C32.1948 0.27243 38.3727 1.67868 43.6589 4.4912C48.9451 7.30372 53.0212 11.2668 55.8872 16.3805C58.3377 20.6042 59.7633 25.387 60.1642 30.7288H55.4105V41.084H59.6527C58.9636 44.8311 57.7084 48.2941 55.8872 51.473C53.0212 56.5867 48.9132 60.5498 43.5633 63.3623C38.2771 66.1748 32.1311 67.581 25.1253 67.581Z" fill="white"/>
<path fill-rule="evenodd" clip-rule="evenodd" d="M168.357 4.45603C174.804 6.66303 183.379 12.455 188 24.6537H172.682C170.478 21.5375 167.348 19.1951 163.738 17.9592C160.128 16.7233 156.22 16.6566 152.569 17.7688C148.919 18.8809 145.711 21.1152 143.403 24.1545C141.094 27.1938 139.801 30.8836 139.707 34.6998C139.614 38.516 140.724 42.2646 142.881 45.4135C145.039 48.5623 148.133 50.9512 151.724 52.241C155.316 53.5308 159.222 53.6558 162.889 52.5984C166.556 51.541 169.206 49.7229 171.56 46.7184H188C183.586 58.7487 173.389 64.4235 166.841 66.3118C160.293 68.2 153.318 67.9767 146.904 65.6736C140.491 63.3704 134.965 59.1045 131.113 53.4816C128.544 49.7315 126.806 45.505 125.983 41.084H130.611V30.7288H125.737C126.493 25.2209 128.656 19.978 132.044 15.5192C136.167 10.0919 141.894 6.10194 148.413 4.116C154.931 2.13005 161.91 2.24902 168.357 4.45603Z" fill="white"/>
<rect x="3.65332" y="41.084" width="12.787" height="12.7917" fill="white"/>
</svg>
