<svg width="188" height="60" viewBox="0 0 188 60" fill="none" xmlns="http://www.w3.org/2000/svg">
    <path d="M90.5685 22.1643H88.4608C87.6178 22.1643 86.9434 22.8895 86.9434 23.7673V40.2933C86.9434 41.1838 87.6298 41.8962 88.4608 41.8962H90.5685C91.4115 41.8962 92.0859 41.1711 92.0859 40.2933V23.7673C92.0859 22.8767 91.4115 22.1643 90.5685 22.1643Z" fill="#5CB85C"/>
    <path d="M82.9686 22.1643C81.6439 22.1643 80.5238 23.004 79.9819 24.2126L74.3696 36.7947C74.2371 37.0873 73.9722 37.5835 73.7554 37.5835C73.5386 37.5835 73.2736 37.1 73.1412 36.7947L67.4928 24.2126C66.9508 23.004 65.8308 22.1643 64.506 22.1643H61.2422L70.1423 40.3696C71.0215 42.1634 72.828 42.1252 73.7554 42.1252C75.032 42.1252 76.5374 42.0489 77.3202 40.3696L86.2204 22.1643H82.9686V22.1643Z" fill="#5CB85C"/>
    <path d="M181.328 19.1364C181.328 18.2459 180.642 17.5334 179.811 17.5334H177.703C176.86 17.5334 176.186 18.2586 176.186 19.1364V35.4588C176.186 37.9524 177.029 39.4027 178.522 40.4459C179.979 41.4509 181.653 41.8962 184.785 41.8962H186.483C187.326 41.8962 188 41.1711 188 40.2932V38.5503H186.724C185.796 38.5503 183.857 38.5121 182.713 37.6979C181.22 36.6547 181.352 34.7973 181.352 33.4488V19.1364H181.328Z" fill="#5CB85C"/>
    <path d="M148.316 38.5503C147.389 38.5503 145.45 38.5121 144.306 37.6979C142.813 36.6547 142.945 34.7973 142.945 33.4488V25.5102H147.943C148.786 25.5102 149.461 24.785 149.461 23.9072V22.1643H142.945V19.1364C142.945 18.2459 142.259 17.5334 141.428 17.5334H139.32C138.477 17.5334 137.802 18.2586 137.802 19.1364V22.1643H127.048V19.1364C127.048 18.2459 126.361 17.5334 125.53 17.5334H123.423C122.58 17.5334 121.905 18.2586 121.905 19.1364V22.1643H118.689V23.9072C118.689 24.7977 119.376 25.5102 120.207 25.5102H121.905V35.4588C121.905 37.9524 122.748 39.4027 124.242 40.4459C125.699 41.4509 127.373 41.8962 130.504 41.8962H132.202C133.045 41.8962 133.72 41.1711 133.72 40.2932V38.5503H132.443C131.516 38.5503 129.577 38.5121 128.433 37.6979C126.939 36.6547 127.072 34.7973 127.072 33.4488V25.5102H137.827V35.4588C137.827 37.9524 138.67 39.4027 140.163 40.4459C141.62 41.4509 143.294 41.8962 146.426 41.8962H148.076C148.919 41.8962 149.593 41.1711 149.593 40.2932V38.5503H148.316Z" fill="#5CB85C"/>
    <path d="M116.763 40.2932V38.5503H105.345C103.455 38.5503 101.287 38.3213 100.636 36.2094C100.456 35.6115 100.323 34.352 100.323 33.4869H113.896C114.824 33.4869 115.703 33.3342 116.413 32.7363C117.377 31.9221 117.509 30.7643 117.509 29.7593C117.509 27.2658 116.931 24.8104 114.209 23.3601C112.054 22.2024 109.235 22.0879 106.502 22.0879C104.298 22.0879 100.335 22.0879 97.782 23.9453C95.2288 25.8027 95 28.5253 95 32.2147C95 34.8227 95.1325 37.5452 96.674 39.4026C98.6131 41.7053 101.431 41.8962 103.816 41.8962H115.245C116.088 41.8962 116.763 41.171 116.763 40.2932ZM112.186 28.9705C112.186 29.4921 112.054 30.1282 111.042 30.1282H103.707C101.841 30.1282 100.335 31.0315 100.335 32.1383V30.1282C100.383 28.8306 100.335 27.7492 101.395 26.7442C102.804 25.4084 104.924 25.4465 106.285 25.4465C107.742 25.4465 109.416 25.5229 110.693 26.3371C111.439 26.8078 112.186 27.7492 112.186 28.9705Z" fill="#5CB85C"/>
    <path d="M172.512 40.2932V38.5503H161.095C159.204 38.5503 157.036 38.3213 156.386 36.2094C156.205 35.6115 156.073 34.352 156.073 33.4869H169.646C170.573 33.4869 171.452 33.3342 172.163 32.7363C173.127 31.9221 173.271 30.7643 173.271 29.7593C173.271 27.2658 172.693 24.8104 169.971 23.3601C167.815 22.2024 164.997 22.0879 162.263 22.0879C160.059 22.0879 156.097 22.0879 153.544 23.9453C150.991 25.8027 150.762 28.5253 150.762 32.2147C150.762 34.8227 150.894 37.5452 152.436 39.4026C154.375 41.7053 157.193 41.8962 159.578 41.8962H171.007C171.826 41.8962 172.512 41.171 172.512 40.2932ZM167.924 28.9705C167.924 29.4921 167.791 30.1282 166.78 30.1282H159.445C157.578 30.1282 156.073 31.0315 156.073 32.1383V30.1282C156.121 28.8306 156.073 27.7492 157.133 26.7442C158.542 25.4084 160.661 25.4465 162.022 25.4465C163.48 25.4465 165.154 25.5228 166.43 26.3371C167.177 26.8078 167.924 27.7492 167.924 28.9705Z" fill="#5CB85C"/>
    <path d="M90.5685 16.6301H88.4608C87.6178 16.6301 86.9434 17.3553 86.9434 18.2331V18.6784V22.1515H86.9674C87.112 21.2355 88.0995 20.2941 89.5207 20.2941H90.5805C91.4235 20.2941 92.098 19.5689 92.098 18.6911V18.2458C92.0859 17.3553 91.4115 16.6301 90.5685 16.6301Z" fill="#5CB85C"/>
    <path d="M49.1104 31.1748V56.3911H2.47224V6.3117H25.918V3.62524H2.47224H0V6.3117V56.3911V58.7244V59.0776H49.1104H51.5725V56.3911V31.1748H49.1104Z" fill="#313D54"/>
    <path d="M12.9593 8.62354H4.49902V17.5605H12.9593V8.62354Z" fill="#313D54"/>
    <path d="M30.0726 8.62354H21.6123V17.5605H30.0726V8.62354Z" fill="#313D54"/>
    <path d="M21.6118 17.5605H12.959V26.7009H21.6118V17.5605Z" fill="#313D54"/>
    <path d="M12.9593 26.7009H4.49902V35.6379H12.9593V26.7009Z" fill="#313D54"/>
    <path d="M30.0726 26.7009H21.6123V35.6379H30.0726V26.7009Z" fill="#313D54"/>
    <path d="M21.6118 35.6379H12.959V44.7783H21.6118V35.6379Z" fill="#313D54"/>
    <path d="M12.9593 44.7783H4.49902V53.7153H12.9593V44.7783Z" fill="#313D54"/>
    <path d="M30.0726 44.7783H21.6123V53.7153H30.0726V44.7783Z" fill="#313D54"/>
    <path d="M38.7251 35.6379H30.0723V44.7783H38.7251V35.6379Z" fill="#313D54"/>
    <path d="M47.1859 44.7783H38.7256V53.7153H47.1859V44.7783Z" fill="#313D54"/>
    <path d="M38.7251 17.5605H30.0723V26.7009H38.7251V17.5605Z" fill="#313D54"/>
    <path d="M47.1859 26.7009H38.7256V35.6379H47.1859V26.7009Z" fill="#313D54"/>
    <path d="M54.4611 20.718H49.1113V26.3692H54.4611V20.718Z" fill="#5CB85C"/>
    <path d="M47.0545 8.62354H40.2559V15.8053H47.0545V8.62354Z" fill="#5CB85C"/>
    <path d="M54.5623 0.5H49.0605V6.31174H54.5623V0.5Z" fill="#5CB85C"/>
    <path d="M35.544 0.5H30.1436V6.20471H35.544V0.5Z" fill="#5CB85C"/>
    <path d="M54.5625 12.0164H52.2422V14.4673H54.5625V12.0164Z" fill="#5CB85C"/>
    <path d="M43.5584 0.5H40.8633V3.347H43.5584V0.5Z" fill="#5CB85C"/>
    <path d="M73.5053 53.519C73.5053 55.0621 73.0411 56.4138 72.1012 57.5741C71.1613 58.7344 69.8477 59.3086 68.1604 59.3086C67.4017 59.3086 66.3485 59.2727 65.001 59.2129C65.0689 57.5621 65.1029 55.708 65.1029 53.6505C65.1029 51.6648 65.0689 49.9782 65.001 48.5786H66.3599C66.5863 48.5786 66.9147 48.5666 67.3451 48.5547C67.7867 48.5427 68.0698 48.5308 68.2057 48.5308C70.0628 48.5308 71.4217 49.0212 72.2597 50.0021C73.0977 50.983 73.5053 52.1433 73.5053 53.519ZM71.3991 53.8659C71.3991 52.8252 71.1046 51.94 70.5271 51.2222C69.9496 50.5045 69.0663 50.1456 67.8773 50.1456C67.6508 50.1456 67.3564 50.1696 66.96 50.2174C67.0167 51.306 67.0393 52.4424 67.0393 53.6386C67.0393 54.9424 67.062 56.2343 67.1186 57.5143C67.4583 57.5861 67.7867 57.622 68.1264 57.622C69.2362 57.622 70.0515 57.2631 70.5951 56.5334C71.1386 55.8037 71.3991 54.9066 71.3991 53.8659Z" fill="#313D54"/>
    <path d="M84.0025 59.201H81.5226C81.5226 58.8421 81.2848 57.8253 80.8205 56.1387H77.2421C76.7551 57.7894 76.5173 58.8062 76.5173 59.201H74.1846C74.1846 58.9856 74.7847 57.2392 75.9964 53.9735C77.1968 50.6959 77.8083 48.8896 77.8083 48.5667H80.7299C80.7299 48.8777 81.2734 50.66 82.3719 53.9017C83.4477 57.1435 84.0025 58.9139 84.0025 59.201ZM80.4241 54.5836C79.5409 51.7725 79.0992 50.2533 79.0992 50.026H78.9747C78.9747 50.2413 78.5217 51.7605 77.6044 54.5836H80.4241Z" fill="#313D54"/>
    <path d="M91.8614 48.5547L91.8048 50.3131C90.7743 50.2294 89.8004 50.1935 88.8832 50.1935C88.8718 51.2222 88.8718 52.3706 88.8718 53.6386C88.8718 55.6004 88.9058 57.4545 88.9624 59.201H86.7995C86.8675 57.4665 86.9015 55.6123 86.9015 53.6386C86.9015 52.3945 86.8901 51.2462 86.8675 50.1935C86.1427 50.1935 85.1462 50.2413 83.8779 50.3251L83.9346 48.5547H91.8614Z" fill="#313D54"/>
    <path d="M101.611 59.201H99.1314C99.1314 58.8421 98.8936 57.8253 98.4293 56.1387H94.8622C94.3753 57.7894 94.1374 58.8062 94.1374 59.201H91.8047C91.8047 58.9856 92.4049 57.2392 93.6165 53.9735C94.8169 50.6959 95.4284 48.8896 95.4284 48.5667H98.35C98.35 48.8777 98.8936 50.66 99.992 53.9017C101.068 57.1435 101.611 58.9139 101.611 59.201ZM98.0442 54.5836C97.161 51.7725 96.7193 50.2533 96.7193 50.026H96.5948C96.5948 50.2413 96.1418 51.7605 95.2246 54.5836H98.0442Z" fill="#313D54"/>
    <path d="M117.035 51.3419C117.035 52.6457 116.582 53.6027 115.665 54.2247C114.747 54.8468 113.626 55.1578 112.29 55.1578C112.052 55.1578 111.871 55.1578 111.769 55.1458C111.769 56.1745 111.803 57.5263 111.86 59.201H109.686C109.753 57.622 109.787 55.7678 109.787 53.6386C109.787 51.6768 109.753 49.9901 109.686 48.5667H111.033C111.226 48.5667 111.588 48.5547 112.132 48.5427C112.675 48.5308 113.139 48.5188 113.536 48.5188C114.521 48.5188 115.348 48.758 116.016 49.2246C116.695 49.6791 117.035 50.3968 117.035 51.3419ZM115.042 51.7964C115.042 50.6361 114.306 50.05 112.845 50.05C112.483 50.05 112.086 50.0858 111.679 50.1696C111.735 51.1983 111.769 52.3706 111.769 53.6625C111.894 53.6745 112.052 53.6745 112.222 53.6745C114.102 53.6864 115.042 53.0524 115.042 51.7964Z" fill="#313D54"/>
    <path d="M124.985 57.4186L124.928 59.201H118.496C118.553 57.7296 118.587 55.8635 118.587 53.6386C118.587 51.5931 118.553 49.8944 118.496 48.5667H120.67C120.614 49.7987 120.58 51.4974 120.58 53.6386C120.58 55.2774 120.546 56.5813 120.478 57.5502C121.893 57.5382 123.399 57.5023 124.985 57.4186Z" fill="#313D54"/>
    <path d="M134.961 59.201H132.481C132.481 58.8421 132.243 57.8253 131.778 56.1387H128.2C127.713 57.7894 127.475 58.8062 127.475 59.201H125.143C125.143 58.9856 125.743 57.2392 126.954 53.9735C128.155 50.6959 128.766 48.8896 128.766 48.5667H131.688C131.688 48.8777 132.231 50.66 133.33 53.9017C134.417 57.1435 134.961 58.9139 134.961 59.201ZM131.393 54.5836C130.51 51.7725 130.069 50.2533 130.069 50.026H129.944C129.944 50.2413 129.491 51.7605 128.574 54.5836H131.393Z" fill="#313D54"/>
    <path d="M142.831 48.5547L142.775 50.3131C141.744 50.2294 140.77 50.1935 139.853 50.1935C139.842 51.2222 139.842 52.3706 139.842 53.6386C139.842 55.6004 139.876 57.4545 139.932 59.201H137.769C137.837 57.4665 137.871 55.6123 137.871 53.6386C137.871 52.3945 137.86 51.2462 137.837 50.1935C137.112 50.1935 136.116 50.2413 134.848 50.3251L134.904 48.5547H142.831Z" fill="#313D54"/>
    <path d="M150.531 48.5547L150.464 50.349C148.856 50.2653 147.395 50.2174 146.092 50.2174C146.16 51.1505 146.194 52.1792 146.194 53.3156C147.191 53.3156 148.323 53.2917 149.58 53.2319V54.9185C148.301 54.8707 147.168 54.8468 146.194 54.8468C146.194 56.3899 146.217 57.8373 146.262 59.201H144.122C144.19 57.5502 144.224 55.6961 144.224 53.6386C144.224 51.6529 144.19 49.9662 144.122 48.5667H150.531V48.5547Z" fill="#313D54"/>
    <path d="M161.221 53.6864C161.221 55.3611 160.734 56.7487 159.772 57.8492C158.798 58.9498 157.597 59.5 156.171 59.5C154.812 59.5 153.668 58.9976 152.751 57.9808C151.833 56.976 151.369 55.6841 151.369 54.129C151.369 52.4543 151.856 51.0667 152.819 49.9662C153.792 48.8657 154.993 48.3154 156.42 48.3154C157.779 48.3154 158.922 48.8178 159.84 49.8227C160.768 50.8394 161.221 52.1194 161.221 53.6864ZM159.092 53.9257C159.092 52.7893 158.82 51.8682 158.266 51.1504C157.711 50.4447 157.031 50.0858 156.227 50.0858C155.468 50.0858 154.834 50.4447 154.313 51.1624C153.792 51.8801 153.521 52.7773 153.521 53.8659C153.521 55.0023 153.792 55.9233 154.347 56.6291C154.902 57.3349 155.582 57.6937 156.386 57.6937C157.144 57.6937 157.779 57.3349 158.299 56.6171C158.832 55.9114 159.092 55.0023 159.092 53.9257Z" fill="#313D54"/>
    <path d="M171.096 59.201H168.809C168.209 57.2751 167.756 56.0788 167.427 55.6243C167.099 55.1697 166.589 54.9424 165.876 54.9424C165.581 54.9424 165.287 54.9424 165.015 54.9544C165.015 56.354 165.038 57.7655 165.083 59.201H162.932C163 57.5502 163.034 55.6961 163.034 53.6386C163.034 51.6529 163 49.9662 162.932 48.5667H164.279C164.438 48.5667 164.755 48.5547 165.253 48.5427C165.74 48.5308 166.204 48.5188 166.623 48.5188C168.99 48.5188 170.179 49.3801 170.179 51.0906C170.179 52.4424 169.5 53.3874 168.152 53.9257V54.0453C168.673 54.2008 169.126 54.6314 169.522 55.3372C169.896 56.031 170.428 57.3229 171.096 59.201ZM168.186 51.6768C168.186 50.5882 167.529 50.0499 166.204 50.0499C165.717 50.0499 165.287 50.0858 164.925 50.1696C164.981 51.0189 165.015 52.1194 165.015 53.4711C165.298 53.4831 165.536 53.4831 165.74 53.4831C167.371 53.4831 168.186 52.885 168.186 51.6768Z" fill="#313D54"/>
    <path d="M184.006 59.201H181.753C181.753 58.2799 181.696 56.7129 181.594 54.5118C181.481 52.3108 181.424 50.9471 181.424 50.3969H181.311C181.254 50.7198 181.118 51.3299 180.903 52.2151C180.677 53.1003 180.269 54.4042 179.658 56.1147C179.046 57.8373 178.74 58.866 178.74 59.201H177.03C177.03 58.8541 176.736 57.8134 176.147 56.0908C175.558 54.3683 175.173 53.1481 175.003 52.4663C174.822 51.7725 174.675 51.0907 174.573 50.4088H174.46C174.46 51.0907 174.392 52.55 174.267 54.787C174.143 57.0239 174.086 58.4952 174.086 59.2129H172.048C172.048 59.0455 172.24 57.4067 172.614 54.2965C172.988 51.1864 173.18 49.2724 173.18 48.5667H176.17C176.17 49.1767 176.487 50.5284 177.121 52.6098C177.755 54.6913 178.072 56.0191 178.072 56.6052H178.186C178.186 56.0191 178.548 54.6793 179.261 52.5979C179.986 50.5165 180.337 49.1767 180.337 48.5667H183.304C183.304 49.6911 183.429 51.7127 183.666 54.6075C183.893 57.4904 184.006 59.0335 184.006 59.201Z" fill="#313D54"/>
</svg>
